<?xml version="1.0" encoding="UTF-8" standalone="no"?>
<svg
   width="100%"
   height="100%"
   viewBox="0 0 128 128"
   version="1.1"
   xml:space="preserve"
   style="fill-rule:evenodd;clip-rule:evenodd;stroke-miterlimit:1;"
   id="svg17"
   sodipodi:docname="tux_manager_icon.svg"
   inkscape:version="1.4.3 (0d15f75, 2025-12-25)"
   xmlns:inkscape="http://www.inkscape.org/namespaces/inkscape"
   xmlns:sodipodi="http://sodipodi.sourceforge.net/DTD/sodipodi-0.dtd"
   xmlns:xlink="http://www.w3.org/1999/xlink"
   xmlns="http://www.w3.org/2000/svg"
   xmlns:svg="http://www.w3.org/2000/svg"><sodipodi:namedview
   id="namedview17"
   pagecolor="#505050"
   bordercolor="#eeeeee"
   borderopacity="1"
   inkscape:showpageshadow="0"
   inkscape:pageopacity="0"
   inkscape:pagecheckerboard="0"
   inkscape:deskcolor="#505050"
   inkscape:zoom="13.875"
   inkscape:cx="63.963964"
   inkscape:cy="64"
   inkscape:window-width="3840"
   inkscape:window-height="2036"
   inkscape:window-x="-12"
   inkscape:window-y="-12"
   inkscape:window-maximized="1"
   inkscape:current-layer="g3" />
    <g
   id="g3">
        <g
   id="g1"
   transform="matrix(1,0,0,1.1087,0,13)">
            <path
   d="M128,11.643L128,80.357C128,86.783 122.216,92 115.091,92L12.909,92C5.784,92 0,86.783 0,80.357L0,11.643C0,5.217 5.784,0 12.909,0L115.091,0C122.216,0 128,5.217 128,11.643Z"
   style="fill:rgb(186,198,205);"
   id="path1" />
        </g>
        <g
   id="g2"
   transform="matrix(1,0,0,1.1087,0,13)">
            <path
   d="M128,11.643L128,80.357C128,86.783 122.216,92 115.091,92L12.909,92C5.784,92 0,86.783 0,80.357L0,11.643C0,5.217 5.784,0 12.909,0L115.091,0C122.216,0 128,5.217 128,11.643ZM127,11.643C127,5.715 121.664,0.902 115.091,0.902L12.909,0.902C6.336,0.902 1,5.715 1,11.643L1,80.357C1,86.285 6.336,91.098 12.909,91.098L115.091,91.098C121.664,91.098 127,86.285 127,80.357L127,11.643Z"
   style="fill:url(#linearGradient19);fill-opacity:1"
   id="path2" />
        </g>
    </g>
    <g
   id="g10"
   transform="matrix(0.875,0,0,0.913043,8,22)">
        <path
   id="path3"
   d="M128,10.12L128,81.88C128,87.465 123.268,92 117.44,92L10.56,92C4.732,92 0,87.465 0,81.88L0,10.12C0,4.535 4.732,0 10.56,0L117.44,0C123.268,0 128,4.535 128,10.12Z"
   style="fill:rgb(24,52,69);" />
        <g
   id="g9">
            <clipPath
   id="_clip2">
                <path
   d="M128,10.12L128,81.88C128,87.465 123.268,92 117.44,92L10.56,92C4.732,92 0,87.465 0,81.88L0,10.12C0,4.535 4.732,0 10.56,0L117.44,0C123.268,0 128,4.535 128,10.12Z"
   id="path4" />
            </clipPath>
            <g
   clip-path="url(#_clip2)"
   id="g8">
                <g
   id="g5"
   transform="matrix(1.14286,0,0,1.09524,-9.14286,-33.9524)">
                    <path
   d="M8,62L21.353,62C22.379,62 23.333,62.524 23.884,63.389C24.827,64.87 26.358,67.277 27.653,69.312C28.073,69.972 28.84,70.327 29.615,70.219C30.39,70.112 31.031,69.563 31.256,68.813C33.203,62.324 36.879,50.071 38.359,45.138C38.739,43.869 39.907,43 41.232,43L44.517,43C45.958,43 47.195,44.024 47.465,45.439C48.147,49.022 49.428,55.747 50.246,60.043C50.332,60.495 50.715,60.829 51.174,60.855C51.632,60.88 52.049,60.59 52.184,60.15C52.914,57.781 53.817,54.844 54.401,52.947C54.756,51.793 55.829,51.01 57.037,51.025C57.187,51.026 57.336,51.028 57.482,51.03C58.388,51.041 59.185,51.632 59.458,52.496C60.515,55.832 63.123,64.07 64.346,67.935C64.464,68.307 64.787,68.577 65.174,68.626C65.561,68.675 65.941,68.494 66.148,68.164C67.051,66.718 68.292,64.733 69.119,63.41C69.667,62.533 70.628,62 71.663,62L86.022,62C87.222,62 88.307,62.715 88.779,63.818C89.93,66.503 92.07,71.497 93.221,74.182C93.693,75.285 94.778,76 95.978,76L96.701,76C98.057,76 99.245,75.09 99.598,73.78C100.998,68.579 104.46,55.72 105.617,51.424C105.843,50.584 106.605,50 107.474,50L107.673,50C108.453,50 109.133,50.531 109.322,51.288C109.826,53.303 110.807,57.229 111.432,59.728C111.766,61.063 112.966,62 114.342,62L120,62L120,115L8,115L8,62Z"
   style="fill:rgb(50,87,110);"
   id="path5" />
                </g>
                <g
   id="g6"
   transform="matrix(1.14286,0,0,1.09524,-9.14286,-12.0476)">
                    <path
   d="M8,52L18.219,52C19.317,52 20.327,52.6 20.853,53.563C21.947,55.57 23.842,59.044 25.002,61.171C25.263,61.649 25.708,62 26.233,62.143C26.759,62.286 27.32,62.208 27.787,61.928C30.02,60.588 33.738,58.357 35.287,57.428C35.754,57.148 36.287,57 36.831,57L42.146,57C43.282,57 44.321,57.642 44.829,58.658C45.812,60.625 47.466,63.931 48.638,66.275C48.831,66.662 49.251,66.881 49.678,66.817C50.106,66.754 50.444,66.424 50.518,65.998C51.517,60.202 53.693,47.579 54.596,42.346C54.829,40.994 56.009,40.012 57.381,40.029C57.59,40.031 57.793,40.034 57.981,40.036C58.608,40.043 59.18,40.396 59.47,40.952C61.367,44.605 68.514,58.363 71.584,64.274C71.784,64.658 72.208,64.87 72.635,64.8C73.062,64.729 73.395,64.391 73.46,63.963C74.438,57.512 76.705,42.546 77.614,36.551C77.836,35.084 79.096,34 80.58,34L85.44,34C86.914,34 88.171,35.072 88.402,36.529C89.677,44.54 93.606,69.238 94.709,76.173C94.877,77.225 95.784,78 96.85,78L97.155,78C97.669,78 98.134,77.697 98.343,77.228C99.585,74.434 103.854,64.829 105.419,61.308C105.772,60.512 106.561,60 107.431,60L107.822,60C108.531,60 109.165,60.44 109.414,61.103C109.892,62.378 110.687,64.499 111.27,66.053C111.709,67.224 112.828,68 114.079,68L120,68L120,95L8,95L8,52Z"
   style="fill:rgb(71,127,160);"
   id="path6" />
                </g>
                <g
   id="g7"
   transform="matrix(1.14286,0,0,1.09524,-9.14286,5.44769)">
                    <path
   d="M8,48L18.219,48C19.317,48 20.327,48.6 20.853,49.563C21.7,51.117 23.029,53.552 24.123,55.56C24.483,56.219 25.183,56.622 25.934,56.601C26.685,56.58 27.362,56.14 27.685,55.462C29.859,50.896 33.555,43.135 35.186,39.71C35.683,38.665 36.737,38 37.894,38L41.872,38C43.146,38 44.282,38.806 44.703,40.009C46.045,43.842 48.955,52.158 50.297,55.991C50.718,57.194 51.854,58 53.128,58L56.352,58C57.853,58 59.123,56.89 59.324,55.402C60.238,48.656 62.706,30.42 64.042,20.552C64.109,20.062 64.523,19.694 65.018,19.687C65.512,19.679 65.938,20.034 66.02,20.522C67.444,29.043 69.853,43.453 70.668,48.33C70.829,49.294 71.663,50 72.641,50L75.302,50C76.37,50 77.358,49.432 77.895,48.509C78.368,47.696 78.94,46.713 79.358,45.994C79.716,45.379 80.375,45 81.087,45L84.212,45C85.19,45 86.025,45.708 86.185,46.673C86.739,50.019 87.988,57.551 88.641,61.491C88.881,62.938 90.133,64 91.601,64L99.359,64C100.471,64 101.493,63.384 102.012,62.401C102.613,61.262 103.418,59.738 104.019,58.599C104.538,57.616 105.559,57 106.672,57L120,57L120,79L8,79L8,48Z"
   style="fill:rgb(111,162,192);"
   id="path7" />
                </g>
            </g>
        </g>
        <path
   id="path9"
   d="M129.143,10.12L129.143,81.88C129.143,88.07 123.899,93.095 117.44,93.095L10.56,93.095C4.101,93.095 -1.143,88.07 -1.143,81.88L-1.143,10.12C-1.143,3.93 4.101,-1.095 10.56,-1.095L117.44,-1.095C123.899,-1.095 129.143,3.93 129.143,10.12ZM128,10.12C128,4.535 123.268,0 117.44,0L10.56,0C4.732,0 0,4.535 0,10.12L0,81.88C0,87.465 4.732,92 10.56,92L117.44,92C123.268,92 128,87.465 128,81.88L128,10.12Z"
   style="fill:url(#_Linear3);" />
    </g>
    <g
   id="g16">
        <g
   id="path10"
   transform="matrix(1,0,0,1,0,0.5)">
            <path
   d="M8,64L120,64"
   style="fill:none;stroke:white;stroke-opacity:0.05;stroke-width:1px;"
   id="path8" />
        </g>
        <g
   id="g11"
   transform="matrix(1,0,0,1,0,18.5)">
            <path
   d="M8,64L120,64"
   style="fill:none;stroke:white;stroke-opacity:0.05;stroke-width:1px;"
   id="path11" />
        </g>
        <g
   id="g12"
   transform="matrix(1,0,0,1,0,34.5)">
            <path
   d="M8,64L120,64"
   style="fill:none;stroke:white;stroke-opacity:0.05;stroke-width:1px;"
   id="path12" />
        </g>
        <g
   id="g13"
   transform="matrix(1,0,0,1,0,-17.5)">
            <path
   d="M8,64L120,64"
   style="fill:none;stroke:white;stroke-opacity:0.05;stroke-width:1px;"
   id="path13" />
        </g>
        <g
   id="g14"
   transform="matrix(1,0,0,1,0,-33.5)">
            <path
   d="M8,64L120,64"
   style="fill:none;stroke:white;stroke-opacity:0.05;stroke-width:1px;"
   id="path14" />
        </g>
    </g>
    <defs
   id="defs17"><linearGradient
   id="linearGradient17"
   inkscape:collect="always"><stop
     style="stop-color:#dcdedf;stop-opacity:1;"
     offset="0"
     id="stop18" /><stop
     style="stop-color:#9baeb8;stop-opacity:1;"
     offset="1"
     id="stop19" /></linearGradient>
        <linearGradient
   id="_Linear1"
   x1="0"
   y1="0"
   x2="1"
   y2="0"
   gradientUnits="userSpaceOnUse"
   gradientTransform="matrix(114,1.12509e-06,-77.5679,1.65353e-06,6.99988,7.21585)"><stop
     offset="0"
     style="stop-color:rgb(220,222,223);stop-opacity:1"
     id="stop14" /><stop
     offset="1"
     style="stop-color:rgb(155,174,184);stop-opacity:1"
     id="stop15" /></linearGradient>
        <linearGradient
   id="_Linear3"
   x1="0"
   y1="0"
   x2="1"
   y2="0"
   gradientUnits="userSpaceOnUse"
   gradientTransform="matrix(-134.401,-102.331,0.862232,-1.04005,131.429,97.4762)"><stop
     offset="0"
     style="stop-color:rgb(206,225,237);stop-opacity:1"
     id="stop16" /><stop
     offset="1"
     style="stop-color:rgb(102,141,163);stop-opacity:1"
     id="stop17" /></linearGradient>
    <linearGradient
   inkscape:collect="always"
   xlink:href="#linearGradient17"
   id="linearGradient19"
   x1="3.2432432"
   y1="4.4612122"
   x2="124.75676"
   y2="88.058838"
   gradientUnits="userSpaceOnUse" /></defs>
</svg>
